<svg xmlns="http://www.w3.org/2000/svg" width="1000" height="1000" viewBox="0 0 1000 1000"><defs><style>.a{fill:#231f20;}.b,.c{fill:none;stroke-miterlimit:10;stroke-width:95px;}.b{stroke:#9e69ac;}.c{stroke:#76c043;}</style></defs><title>logo</title><rect class="a" x="0.5" y="0.5" width="999" height="999"/><path d="M999,1V999H1V1H999m1-1H0V1000H1000V0Z"/><path class="b" d="M297.85,530.46Q404.8,703,496.06,884.69A7028,7028,0,0,0,936.57,72.08"/><path class="c" d="M94.8,937.45c18.3-140.31,36.63-280.91,40.72-422.35S129.23,230.82,91,94.57c138.52-69.58,316.74-51,438,45.55,45.2,36,83.22,82.83,101.07,137.79s13.65,118.43-18.44,166.48c-36.72,55-103,82.51-167.7,96.11a597.27,597.27,0,0,1-318.73-20.81"/></svg>